<?xml version="1.0" standalone="no"?><!DOCTYPE svg PUBLIC "-//W3C//DTD SVG 1.1//EN" "http://www.w3.org/Graphics/SVG/1.1/DTD/svg11.dtd"><svg t="1621055692502" class="icon" viewBox="0 0 1024 1024" version="1.1" xmlns="http://www.w3.org/2000/svg" p-id="2877" xmlns:xlink="http://www.w3.org/1999/xlink" width="200" height="200"><defs><style type="text/css"></style></defs><path d="M692.34 624.3c-19.94 0-36.18 16.22-36.18 36.16 0 19.94 16.24 36.18 36.18 36.18s36.16-16.24 36.16-36.18-16.22-36.16-36.16-36.16z m0 52.34c-8.92 0-16.18-7.26-16.18-16.18s7.26-16.16 16.18-16.16 16.16 7.24 16.16 16.16-7.24 16.18-16.16 16.18z" fill="#23130D" p-id="2878"></path><path d="M522 69.18V39.12c0-5.54-4.48-10-10-10s-10 4.46-10 10v30.06C293.18 74.5 124.94 246.02 124.94 456.1c0 5.52 4.48 10 10 10s10-4.48 10-10c0-45.98 37.8-83.38 84.26-83.38 46.48 0 84.28 37.4 84.28 83.38 0 5.52 4.46 10 10 10 5.52 0 10-4.48 10-10 0-45.98 37.8-83.38 84.26-83.38S502 410.12 502 456.1V514.18h-68.02c-115.94 0-210.26 94.32-210.26 210.24 0 44.56 13.86 86.46 38.12 121 24.24 34.54 58.9 61.68 100.5 76.72v43.5c0 16.12 13.12 29.24 29.26 29.24h43.64c16.14 0 29.26-13.12 29.26-29.24v-30.96h97.4v30.96c0 16.12 13.12 29.24 29.26 29.24h43.64c16.14 0 29.26-13.12 29.26-29.24v-43.5c62.08-22.42 109.62-72.22 129.16-135.22h24.62c18.74 0 34-15.24 34-33.98v-42.32c0-18.74-15.26-33.98-34-33.98h-20.62c-8.68-37.42-27.4-71.46-54.44-99.12V483.6c0-0.46-0.08-0.92-0.14-1.38-0.02-0.18-0.02-0.36-0.06-0.52-0.1-0.54-0.26-1.04-0.44-1.54-0.04-0.1-0.06-0.22-0.1-0.32-0.24-0.6-0.54-1.16-0.9-1.7 0 0 0-0.02-0.02-0.02-1.1-1.68-2.7-3-4.58-3.76-0.04-0.02-0.08-0.02-0.12-0.04a9.92 9.92 0 0 0-3.64-0.72c-1.2 0-2.34 0.26-3.4 0.64-0.12 0.04-0.26 0.06-0.4 0.12-0.48 0.2-0.94 0.46-1.38 0.74-0.12 0.06-0.24 0.1-0.34 0.18-0.58 0.38-1.1 0.8-1.58 1.28l-53.34 53.36c-25.36-10.44-52.2-15.74-79.92-15.74H522v-58.08c0-45.98 37.8-83.38 84.26-83.38s84.26 37.4 84.26 83.38c0 5.52 4.48 10 10 10 2.76 0 5.26-1.12 7.08-2.94 1.8-1.8 2.92-4.3 2.92-7.06 0-45.98 37.8-83.38 84.28-83.38 46.4 0 84.16 37.32 84.26 83.22v0.16c0 5.52 4.46 10 10 10 2.76 0 5.26-1.12 7.06-2.94 1.82-1.8 2.94-4.3 2.94-7.06v-0.16c-0.1-210-168.3-381.44-377.06-386.76z m278.84 627.46h17c7.72 0 14 6.26 14 13.98v42.32c0 7.72-6.28 13.98-14 13.98h-19.48a211.1 211.1 0 0 0 2.48-70.28z m-356.34 269c0 5.1-4.16 9.24-9.26 9.24H391.6c-5.1 0-9.26-4.14-9.26-9.24v-37.36c16.78 4.26 34.1 6.4 51.64 6.4h10.52v30.96z m36.7-296.98h-9.34c-5.52 0-10 4.48-10 10v91.04c0 5.54 4.48 10 10 10h9.34v134.98h-47.22c-20.04 0-39.74-3.1-58.56-9.18-0.02-0.02-0.06-0.02-0.08-0.04-75.54-24.42-127.26-92.4-131.32-171.04h66.6c0.94 0 1.84-0.16 2.7-0.4 0.86 0.24 1.76 0.4 2.7 0.4 22.22 0 40.3-18.08 40.3-40.3s-18.08-40.32-40.3-40.32c-22.24 0-40.32 18.1-40.32 40.32 0 5.52 4.48 10 10 10s10-4.48 10-10c0-11.2 9.12-20.32 20.32-20.32 11.2 0 20.3 9.12 20.3 20.32s-9.1 20.3-20.3 20.3c-0.94 0-1.84 0.18-2.7 0.42-0.86-0.24-1.76-0.42-2.7-0.42h-66.64c5.22-100.26 88.44-180.24 190-180.24h47.22v134.48z m46.38 246.02H501.2v-134.98h26.38v134.98z m116.48 50.96c0 5.1-4.14 9.24-9.26 9.24h-43.64c-5.1 0-9.26-4.14-9.26-9.24v-30.96h10.52c17.56 0 34.86-2.18 51.64-6.42v37.38z m78.72-457.88v51.76a208.8 208.8 0 0 0-31.26-20.5l31.26-31.26z m-175.2 271.94h6.98c5.52 0 10-4.46 10-10v-91.04c0-5.52-4.48-10-10-10h-6.98v-134.48h44.84c27.2 0 53.48 5.62 78.08 16.72 20.56 9.26 39.16 22 55.26 37.84 27.76 27.26 46.28 61.76 53.54 99.76a192.4 192.4 0 0 1 3.38 35.92c0 16.9-2.22 33.68-6.6 49.9-16.88 62.28-63.64 111.32-125.1 131.18a190.194 190.194 0 0 1-58.56 9.18h-44.84v-134.98z m-3.02-91.04v71.04h-62.7v-71.04h62.7z m-16.98-154.48v134.48H501.2v-134.48h26.38z m267.22-181.46c-41.58 0-77.54 24.26-94.28 59.24-16.72-34.98-52.68-59.24-94.26-59.24s-77.54 24.26-94.26 59.24c-16.72-34.98-52.68-59.24-94.26-59.24s-77.54 24.26-94.26 59.24c-16.74-34.98-52.7-59.24-94.28-59.24-30.88 0-58.66 13.4-77.76 34.62C183.72 217.7 333.1 89.04 512 89.04s328.28 128.66 360.56 298.3c-19.1-21.22-46.88-34.62-77.76-34.62z" fill="#23130D" p-id="2879"></path><path d="M722.78 507.76v51.76a208.8 208.8 0 0 0-31.26-20.5l31.26-31.26zM831.84 710.62v42.32c0 7.72-6.28 13.98-14 13.98h-19.48a211.1 211.1 0 0 0 2.48-70.28h17c7.72 0 14 6.26 14 13.98zM644.06 928.26v37.38c0 5.1-4.14 9.24-9.26 9.24h-43.64c-5.1 0-9.26-4.14-9.26-9.24v-30.96h10.52c17.56 0 34.86-2.18 51.64-6.42zM444.5 934.68v30.96c0 5.1-4.16 9.24-9.26 9.24H391.6c-5.1 0-9.26-4.14-9.26-9.24v-37.36c16.78 4.26 34.1 6.4 51.64 6.4h10.52z" fill="#636368" p-id="2880"></path><path d="M501.2 779.7h26.38v134.98H501.2zM501.2 534.18h26.38v134.48H501.2z" fill="#CC7B5A" p-id="2881"></path><path d="M481.86 688.66h62.7v71.04h-62.7z" fill="#F9C139" p-id="2882"></path><path d="M779.3 688.5c-7.26-38-25.78-72.5-53.54-99.76a189.586 189.586 0 0 0-55.26-37.84c-24.6-11.1-50.88-16.72-78.08-16.72h-44.84v134.48h6.98c5.52 0 10 4.48 10 10v91.04c0 5.54-4.48 10-10 10h-6.98v134.98h44.84c20.04 0 39.74-3.1 58.56-9.18 61.46-19.86 108.22-68.9 125.1-131.18 4.38-16.22 6.6-33 6.6-49.9a192.4 192.4 0 0 0-3.38-35.92z m-86.96 8.14c-19.94 0-36.18-16.24-36.18-36.18s16.24-36.16 36.18-36.16 36.16 16.22 36.16 36.16c0 19.94-16.22 36.18-36.16 36.18z" fill="#E1E1E5" p-id="2883"></path><path d="M708.5 660.46c0 8.92-7.24 16.18-16.16 16.18s-16.18-7.26-16.18-16.18 7.26-16.16 16.18-16.16 16.16 7.24 16.16 16.16z" fill="#636368" p-id="2884"></path><path d="M461.86 678.66v91.04c0 5.54 4.48 10 10 10h9.34v134.98h-47.22c-20.04 0-39.74-3.1-58.56-9.18-0.02-0.02-0.06-0.02-0.08-0.04-75.54-24.42-127.26-92.4-131.32-171.04h66.6c0.94 0 1.84-0.16 2.7-0.4 0.86 0.24 1.76 0.4 2.7 0.4 22.22 0 40.3-18.08 40.3-40.3s-18.08-40.32-40.3-40.32c-22.24 0-40.32 18.1-40.32 40.32 0 5.52 4.48 10 10 10s10-4.48 10-10c0-11.2 9.12-20.32 20.32-20.32 11.2 0 20.3 9.12 20.3 20.32s-9.1 20.3-20.3 20.3c-0.94 0-1.84 0.18-2.7 0.42-0.86-0.24-1.76-0.42-2.7-0.42h-66.64c5.22-100.26 88.44-180.24 190-180.24h47.22v134.48h-9.34c-5.52 0-10 4.48-10 10z" fill="#E1E1E5" p-id="2885"></path><path d="M461.86 678.66v91.04c0 5.54 4.48 10 10 10h9.34v134.98h-18v-134.98h-9.34c-5.52 0-10-4.46-10-10v-91.04c0-5.52 4.48-10 10-10h9.34v-134.48h18v134.48h-9.34c-5.52 0-10 4.48-10 10zM581.9 678.66v91.04c0 5.54-4.48 10-10 10h-9.34v134.98h-14.98v-134.98h6.98c5.52 0 10-4.46 10-10v-91.04c0-5.52-4.48-10-10-10h-6.98v-134.48h14.98v134.48h9.34c5.52 0 10 4.48 10 10z" fill="#23130D" opacity=".2" p-id="2886"></path><path d="M872.56 387.34c-19.1-21.22-46.88-34.62-77.76-34.62-41.58 0-77.54 24.26-94.28 59.24-16.72-34.98-52.68-59.24-94.26-59.24s-77.54 24.26-94.26 59.24c-16.72-34.98-52.68-59.24-94.26-59.24s-77.54 24.26-94.26 59.24c-16.74-34.98-52.7-59.24-94.28-59.24-30.88 0-58.66 13.4-77.76 34.62C183.72 217.7 333.1 89.04 512 89.04s328.28 128.66 360.56 298.3z" fill="#3594BF" p-id="2887"></path><path d="M872.56 387.34a103.882 103.882 0 0 0-15.7-14.22C805.46 232.42 670.28 131.7 512 131.7S218.54 232.42 167.14 373.12c-5.72 4.2-10.96 8.96-15.7 14.22C183.72 217.7 333.1 89.04 512 89.04s328.28 128.66 360.56 298.3z" fill="#23130D" opacity=".2" p-id="2888"></path><path d="M527.64 759.7h-15.04l-30.74-30.74v-15.04zM544.56 759.22v0.48h-11.08l-51.62-51.62v-11.56zM544.56 727.9v19.24l-58.48-58.48h19.24z" fill="#FFFFFF" opacity=".4" p-id="2889"></path></svg>